#!OML:ASF H:\Terrain\Walking\May29\JustinRory\rory.ASF
:FULLY-SPECIFIED
:DEGREES
1411
root 11.8095 18.5312 21.6934 -173.487 20.8657 177.889
lowerback 2.34425 1.77022 -3.00774
upperback 2.22342 2.41598 -1.42865
thorax 0.907427 1.21905 0.182169
lowerneck -8.7388 0.23251 -2.2799
upperneck 6.37046 0.723503 -1.25796
head 3.62017 0.254918 0.0309737
rclavicle -2.71341e-014 4.77083e-015
rhumerus -45.4883 18.9396 -80.9807
rradius 78.4861
rwrist -13.3902
rhand 7.05123 33.1328
rfingers 7.12502
rthumb 32.3245 5.99248
lclavicle -2.71341e-014 4.77083e-015
lhumerus -37.8387 -10.8776 69.7816
lradius 87.1516
lwrist 15.7603
lhand 11.7521 20.9348
lfingers 7.12502
lthumb 36.7862 47.0543
rfemur 3.26775 5.42656 15.9499
rtibia 20.7128
rfoot -20.5414 -23.0292
rtoes 0.395824
lfemur -27.2355 2.72188 -17.2095
ltibia 32.9562
lfoot -11.4176 4.16263
ltoes -5.87242
1412
root 11.7716 18.5348 21.5671 -173.716 21.3899 178.135
lowerback 1.62831 1.92898 -2.59487
upperback 2.48118 2.67097 -1.4249
thorax 1.58453 1.34423 -0.0145658
lowerneck -8.42481 0.0977174 -2.73805
upperneck 6.46486 0.555227 -0.843264
head 3.59119 0.17812 0.238347
rclavicle -2.28105e-014 4.17448e-015
rhumerus -44.5281 19.4223 -78.5102
rradius 79.39
rwrist -14.461
rhand 6.89094 32.6926
rfingers 7.12502
rthumb 32.1719 5.52125
lclavicle -2.28105e-014 4.17448e-015
lhumerus -36.8547 -10.7488 67.1603
lradius 87.7278
lwrist 17.219
lhand 11.7351 21.2435
lfingers 7.12502
lthumb 36.7701 47.367
rfemur 3.67121 5.10883 15.6011
rtibia 20.8946
rfoot -19.6215 -22.1239
rtoes -1.48134
lfemur -26.3287 2.58738 -17.1943
ltibia 32.8894
lfoot -12.2192 4.34041
ltoes -5.27463
1413
root 11.7475 18.5333 21.5073 -173.748 20.7996 178.178
lowerback 1.76669 1.73074 -2.68083
upperback 2.26614 2.38651 -1.40646
thorax 1.28672 1.20166 0.0443342
lowerneck -7.81704 0.0101645 -3.00402
upperneck 6.67104 0.427601 -0.525929
head 3.54558 0.122443 0.381331
rclavicle 4.31363e-014 -1.25234e-014
rhumerus -43.8958 19.8447 -76.0281
rradius 80.2931
rwrist -15.485
rhand 6.7337 32.6325
rfingers 7.12502
rthumb 32.0222 5.43097
lclavicle 4.31363e-014 -1.25234e-014
lhumerus -36.0358 -10.7021 64.2544
lradius 88.1882
lwrist 18.5666
lhand 11.4691 21.3355
lfingers 7.12502
lthumb 36.5184 47.523
rfemur 3.76162 4.39855 15.5485
rtibia 21.3253
rfoot -18.1112 -22.2606
rtoes -5.40627
lfemur -26.1326 2.47277 -17.2811
ltibia 32.7366
lfoot -12.1116 3.6538
ltoes -4.97261
1414
root 11.7184 18.5449 21.4259 -173.818 20.4686 178.094
lowerback 1.78325 1.62213 -2.77148
upperback 1.91637 2.22067 -1.49521
thorax 0.921558 1.11998 -0.00174634
lowerneck -6.75175 -0.0415239 -2.98956
upperneck 6.90444 0.332145 -0.49694
head 3.42043 0.08209 0.38043
rclavicle -8.54774e-015 2.34566e-014
rhumerus -43.415 20.0729 -73.4278
rradius 81.0187
rwrist -16.4582
rhand 6.62098 32.8307
rfingers 7.12502
rthumb 31.9148 5.60773
lclavicle -8.54774e-015 2.34566e-014
lhumerus -35.3456 -10.7631 61.1487
lradius 88.4809
lwrist 19.7317
lhand 10.9892 21.5729
lfingers 7.12502
lthumb 36.064 47.8737
rfemur 3.70237 3.87849 15.2422
rtibia 21.966
rfoot -16.7837 -22.1878
rtoes -9.04191
lfemur -25.8159 2.36292 -17.5691
ltibia 32.4663
lfoot -11.9575 3.5017
ltoes -6.4851
1415
root 11.6883 18.5626 21.3317 -174.033 20.3582 177.87
lowerback 1.6141 1.65591 -3.02717
upperback 1.72324 2.26309 -1.6097
thorax 0.812464 1.14059 0.0248978
lowerneck -5.84252 -0.161329 -2.92244
upperneck 7.20991 0.159016 -0.537597
head 3.35246 0.0027514 0.345402
rclavicle -1.76421e-014 -1.35174e-014
rhumerus -42.4796 19.9003 -70.5112
rradius 81.2637
rwrist -17.1462
rhand 5.94982 32.9064
rfingers 7.12502
rthumb 31.2755 5.5578
lclavicle -1.76421e-014 -1.35174e-014
lhumerus -34.15 -10.9476 58.0386
lradius 88.4176
lwrist 21.0195
lhand 10.8907 21.776
lfingers 7.12502
lthumb 35.9706 48.0997
rfemur 3.71143 3.70646 14.7413
rtibia 22.7044
rfoot -16.3341 -21.8028
rtoes -10.8218
lfemur -25.1892 2.39328 -18.0439
ltibia 32.1184
lfoot -11.7072 3.3884
ltoes -6.64575
1416
root 11.6576 18.5834 21.2256 -174.309 20.294 177.654
lowerback 1.27438 1.67543 -3.25156
upperback 1.73645 2.3067 -1.67996
thorax 1.01005 1.1589 0.0891586
lowerneck -5.3872 -0.32106 -3.09974
upperneck 7.60737 -0.0422957 -0.413041
head 3.4062 -0.0935113 0.408178
rclavicle -1.09332e-014 -2.78299e-015
rhumerus -41.1144 19.7282 -67.279
rradius 81.4008
rwrist -18.0311
rhand 5.33864 32.429
rfingers 7.12502
rthumb 30.6929 4.96944
lclavicle -1.09332e-014 -2.78299e-015
lhumerus -32.5021 -10.7815 54.8992
lradius 87.8272
lwrist 22.2467
lhand 11.3376 22.0264
lfingers 7.12502
lthumb 36.3939 48.2451
rfemur 3.87094 3.50804 14.1817
rtibia 23.3571
rfoot -16.0121 -20.9277
rtoes -11.3008
lfemur -24.4426 2.27564 -18.4719
ltibia 31.7571
lfoot -11.4339 3.28336
ltoes -4.69034
1417
root 11.6223 18.6003 21.1167 -174.543 20.2013 177.358
lowerback 0.785858 1.55155 -3.42517
upperback 1.75805 2.17021 -1.78842
thorax 1.3079 1.08659 0.0914976
lowerneck -5.07115 -0.342178 -3.35829
upperneck 8.24394 -0.0525045 -0.117829
head 3.56925 -0.0914548 0.551737
rclavicle 1.22253e-014 -3.97569e-015
rhumerus -39.5996 19.8472 -63.9003
rradius 81.5881
rwrist -19.3717
rhand 5.14694 31.768
rfingers 7.12502
rthumb 30.5101 4.27427
lclavicle 1.22253e-014 -3.97569e-015
lhumerus -31.0548 -10.2813 51.5521
lradius 86.9959
lwrist 23.3883
lhand 9.79979 22.4553
lfingers 7.12502
lthumb 34.9364 49.0262
rfemur 3.91381 3.19912 13.4754
rtibia 24.0463
rfoot -15.6569 -19.9739
rtoes -10.3097
lfemur -23.7548 2.02737 -19.0108
ltibia 31.3455
lfoot -11.6294 3.49962
ltoes -5.10071
1418
root 11.5879 18.6226 21.0157 -174.736 20.1113 177.177
lowerback 0.461134 1.45681 -3.54036
upperback 1.63083 2.05689 -1.89139
thorax 1.36237 1.02929 0.0575908
lowerneck -4.57709 -0.299536 -3.38759
upperneck 9.12911 0.015422 0.168001
head 3.78372 -0.0387568 0.657494
rclavicle 3.06128e-014 -1.27222e-014
rhumerus -38.1302 19.8055 -60.4745
rradius 81.4305
rwrist -20.6582
rhand 5.01355 31.6014
rfingers 7.12502
rthumb 30.3829 4.08417
lclavicle 3.06128e-014 -1.27222e-014
lhumerus -29.7535 -10.1398 48.0301
lradius 86.0184
lwrist 24.5856
lhand 7.11804 22.7846
lfingers 7.12502
lthumb 32.388 49.9119
rfemur 3.82973 2.74975 12.9023
rtibia 24.8082
rfoot -15.0684 -19.3856
rtoes -9.94033
lfemur -23.1206 1.9841 -19.4693
ltibia 30.8938
lfoot -11.8286 3.79751
ltoes -7.93482
1419
root 11.5603 18.6476 20.917 -174.946 20.1604 177.142
lowerback 0.299992 1.52422 -3.62502
upperback 1.44085 2.14685 -1.95792
thorax 1.25479 1.07569 0.0385942
lowerneck -3.75865 -0.378834 -3.42724
upperneck 9.82924 -0.0891142 0.481665
head 3.87467 -0.0632863 0.765691
rclavicle -4.46769e-014 -1.47101e-014
rhumerus -36.6754 19.3792 -56.9541
rradius 80.8284
rwrist -21.7912
rhand 4.85701 31.4812
rfingers 7.12502
rthumb 30.2336 3.93647
lclavicle -4.46769e-014 -1.47101e-014
lhumerus -28.2299 -10.2065 44.544
lradius 84.8729
lwrist 25.6936
lhand 5.23801 23.1388
lfingers 7.12502
lthumb 30.597 50.6163
rfemur 3.66597 2.40694 12.5227
rtibia 25.7024
rfoot -14.0932 -18.9919
rtoes -10.8325
lfemur -22.4056 2.0786 -19.7402
ltibia 30.4287
lfoot -11.5702 3.85124
ltoes -8.3583
1420
root 11.5323 18.6601 20.8169 -175.264 20.3033 176.857
lowerback 0.0861264 1.56524 -3.93568
upperback 1.30272 2.21324 -2.04938
thorax 1.22383 1.10863 0.122397
lowerneck -2.78869 -0.512314 -3.74995
upperneck 10.2572 -0.255991 0.783299
head 3.84476 -0.127159 0.916221
rclavicle -3.12589e-014 -6.36111e-015
rhumerus -34.955 18.9673 -53.316
rradius 79.9708
rwrist -22.9436
rhand 3.64693 30.9184
rfingers 7.12502
rthumb 29.0786 3.16817
lclavicle -3.12589e-014 -6.36111e-015
lhumerus -26.7617 -9.89981 41.2019
lradius 83.5966
lwrist 26.8116
lhand 5.04005 22.5023
lfingers 7.12502
lthumb 30.4082 50.0149
rfemur 3.46128 2.15504 11.8511
rtibia 26.7606
rfoot -12.8207 -18.564
rtoes -12.7904
lfemur -21.5555 2.02157 -20.242
ltibia 29.9269
lfoot -11.4869 3.87905
ltoes -6.5588
1421
root 11.5012 18.6719 20.7196 -175.547 20.1955 176.65
lowerback -0.193768 1.47418 -4.14043
upperback 1.2721 2.11282 -2.1138
thorax 1.34824 1.05629 0.177612
lowerneck -2.08235 -0.637946 -3.90643
upperneck 10.7479 -0.388048 0.817048
head 3.88668 -0.179487 0.951725
rclavicle -1.73937e-014 8.34896e-015
rhumerus -32.9516 18.3556 -49.6594
rradius 78.9033
rwrist -23.9923
rhand 1.66681 30.0192
rfingers 7.12502
rthumb 27.1859 1.95775
lclavicle -1.73937e-014 8.34896e-015
lhumerus -25.1566 -9.43163 37.8283
lradius 81.951
lwrist 28.0815
lhand 5.22446 22.0594
lfingers 7.12502
lthumb 30.584 49.5394
rfemur 3.21695 1.88454 11.3149
rtibia 27.9552
rfoot -11.7198 -17.9865
rtoes -13.6814
lfemur -20.6903 1.7614 -20.6533
ltibia 29.3579
lfoot -11.7609 3.98775
ltoes -5.97932
1422
root 11.4744 18.6912 20.6266 -175.93 19.8252 176.601
lowerback -0.277057 1.35022 -4.25394
upperback 1.36989 1.96487 -2.16774
thorax 1.49911 0.980514 0.187865
lowerneck -1.78238 -0.755609 -3.67014
upperneck 11.5099 -0.499356 0.771257
head 4.10099 -0.208893 0.895292
rclavicle -1.90336e-014 1.47101e-014
rhumerus -30.9114 17.4894 -46.0411
rradius 77.6788
rwrist -24.9938
rhand 1.05773 29.2073
rfingers 7.12502
rthumb 26.6031 1.05611
lclavicle -1.90336e-014 1.47101e-014
lhumerus -23.1198 -8.95374 34.2897
lradius 79.8847
lwrist 29.3532
lhand 4.17184 23.4152
lfingers 7.12502
lthumb 29.5797 51.0777
rfemur 3.14964 2.00723 11.1313
rtibia 29.2574
rfoot -11.5952 -17.3241
rtoes -9.43742
lfemur -19.6909 1.36938 -20.8703
ltibia 28.7737
lfoot -11.9605 4.07408
ltoes -6.117
1423
root 11.4477 18.7066 20.5326 -176.439 19.5048 176.34
lowerback -0.219471 1.26976 -4.58582
upperback 1.43951 1.8712 -2.24042
thorax 1.53482 0.932687 0.296341
lowerneck -1.41134 -0.864777 -3.65871
upperneck 12.2588 -0.607898 0.972906
head 4.30315 -0.231332 0.96219
rclavicle 1.2424e-015 -2.10712e-014
rhumerus -29.1714 17.0723 -42.3075
rradius 76.7329
rwrist -26.5772
rhand 1.37062 28.6303
rfingers 7.12502
rthumb 26.9025 0.524815
lclavicle 1.2424e-015 -2.10712e-014
lhumerus -21.0973 -8.30883 30.8542
lradius 77.575
lwrist 30.3732
lhand 4.84973 23.4637
lfingers 7.12502
lthumb 30.2266 51.0096
rfemur 3.18122 2.12476 10.6668
rtibia 30.6453
rfoot -11.8133 -16.5555
rtoes -3.30936
lfemur -18.6441 1.10497 -21.3328
ltibia 28.2348
lfoot -12.172 4.06605
ltoes -6.41702
1424
root 11.4152 18.7207 20.4374 -176.607 19.3578 176.271
lowerback -0.452178 1.18372 -4.69459
upperback 1.39293 1.76703 -2.18918
thorax 1.61692 0.876457 0.413257
lowerneck -0.704879 -0.893891 -4.1082
upperneck 12.7106 -0.617479 1.31042
head 4.3371 -0.218047 1.15927
rclavicle -7.28049e-014 3.45885e-014
rhumerus -27.2718 16.729 -38.4972
rradius 75.5482
rwrist -28.1904
rhand 1.34722 28.1996
rfingers 7.12502
rthumb 26.8801 0.0906889
lclavicle -7.28049e-014 3.45885e-014
lhumerus -19.5068 -7.46085 27.751
lradius 75.1421
lwrist 31.0231
lhand 5.49487 22.657
lfingers 7.12502
lthumb 30.8419 50.0885
rfemur 2.71977 1.95993 10.2839
rtibia 32.1237
rfoot -11.1169 -16.0863
rtoes -0.852427
lfemur -17.8927 1.0133 -21.6192
ltibia 27.727
lfoot -12.4029 4.03716
ltoes -6.4352
1425
root 11.3906 18.7335 20.3444 -176.641 19.4968 176.376
lowerback -0.808602 1.19836 -4.73973
upperback 1.33958 1.8021 -2.12321
thorax 1.75727 0.888409 0.514762
lowerneck -0.150885 -0.915689 -4.31923
upperneck 13.2438 -0.609434 1.5321
head 4.42773 -0.189912 1.27735
rclavicle -4.12478e-014 9.14409e-015
rhumerus -24.9867 15.3144 -34.9984
rradius 73.1841
rwrist -28.5964
rhand 1.1817 28.0803
rfingers 7.12502
rthumb 26.7217 -0.0528446
lclavicle -4.12478e-014 9.14409e-015
lhumerus -17.8906 -6.70383 24.7323
lradius 72.4717
lwrist 31.5893
lhand 4.03923 22.7957
lfingers 7.12502
lthumb 29.4531 50.4806
rfemur 1.92687 2.04213 10.1736
rtibia 33.694
rfoot -9.44994 -16.105
rtoes -1.60312
lfemur -17.2184 1.12912 -21.6878
ltibia 27.2436
lfoot -12.536 4.03445
ltoes -5.8178
